<?xml version="1.0" standalone="no"?>
<svg xmlns="http://www.w3.org/2000/svg" version="1.1" viewBox="0 0 512 512">
  <circle r="220" cx="256" cy="256" fill="white" />
  <g transform="translate(256 256) scale(36.950418, 42.666667)">
    <path d="
      M 0 -1 L
      3 -2.5
      4 -2
      4 -1
      1 0.5
      1 3.5
      0 4
      -1 3.5
      -1 0.5
      -4 -1
      -4 -2
      -3 -2.5
      z
    " />
    <path fill="red" d="
      M 0 -4 L
      2 -3
      1 -2.5
      0 -3
      -1 -2.5
      -2 -3
      z

      M 4 2 L
      2 3
      2 2
      3 1.5
      3 0.5
      4 0
      z

      M -4 2 L
      -2 3
      -2 2
      -3 1.5
      -3 0.5
      -4 0
      z
    " />
  </g>
</svg>
