<?xml version="1.0" standalone="no"?>
<svg xmlns="http://www.w3.org/2000/svg" version="1.1" viewBox="0 0 1024 1024">
  <circle r="512" cx="512" cy="512" fill="white" />
  <g transform="translate(512 512) scale(36.950418, 42.666667)">
    <path fill-rule="evenodd" d="
      M 0 -10 L
      10 -5
      10 5
      0 10
      -10 5
      -10 -5
      z

      M 0 -9 L
      9 -4.5
      9 4.5
      0 9
      -9 4.5
      -9 -4.5
      z

      M 0 -6 L
      2 -5
      3 -5.5
      1 -6.5
      2 -7
      6 -5
      6 -4
      4 -5
      4 -4
      6 -3
      6 -1
      7 -0.5
      7 -2.5
      8 -2
      8 2
      7 2.5
      7 0.5
      6 1
      6 3
      4 4
      4 5
      6 4
      6 5
      2 7
      1 6.5
      3 5.5
      2 5
      0 6
      -2 5
      -3 5.5
      -1 6.5
      -2 7
      -6 5
      -6 4
      -4 5
      -4 4
      -6 3
      -6 1
      -7 0.5
      -7 2.5
      -8 2
      -8 -2
      -7 -2.5
      -7 -0.5
      -6 -1
      -6 -3
      -4 -4
      -4 -5
      -6 -4
      -6 -5
      -2 -7
      -1 -6.5
      -3 -5.5
      -2 -5
      z

      M 0 -5 L
      2 -4
      3 -4.5
      3 -3.5
      5 -2.5
      5 -0.5
      6 0
      5 0.5
      5 2.5
      3 3.5
      3 4.5
      2 4
      0 5
      -2 4
      -3 4.5
      -3 3.5
      -5 2.5
      -5 0.5
      -6 0
      -5 -0.5
      -5 -2.5
      -3 -3.5
      -3 -4.5
      -2 -4
      z

      M 0 -1 L
      3 -2.5
      4 -2
      4 -1
      1 0.5
      1 3.5
      0 4
      -1 3.5
      -1 0.5
      -4 -1
      -4 -2
      -3 -2.5
      z
    " />
    <path style="fill: red" d="
      M 0 -4 L
      2 -3
      1 -2.5
      0 -3
      -1 -2.5
      -2 -3
      z

      M 4 2 L
      2 3
      2 2
      3 1.5
      3 0.5
      4 0
      z

      M -4 2 L
      -2 3
      -2 2
      -3 1.5
      -3 0.5
      -4 0
      z

      M 0 -7 L
      1 -7.5
      0 -8
      -1 -7.5

      M 7 -3.5 L
      8 -3
      8 -4
      7 -4.5
      z

      M 7 3.5 L
      8 3
      8 4
      7 4.5
      z

      M 0 7 L
      1 7.5
      0 8
      -1 7.5
      z

      M -7 3.5 L
      -8 3
      -8 4
      -7 4.5

      M -7 -3.5 L
      -8 -3
      -8 -4
      -7 -4.5
      z
    " />
  </g>
</svg>